<svg version="1.1" id="Layer_1" xmlns="http://www.w3.org/2000/svg" xmlns:xlink="http://www.w3.org/1999/xlink" x="0px" y="0px"
	 width="100%" viewBox="0 0 788 747" enable-background="new 0 0 788 747" xml:space="preserve">
<path fill="#F9F9F9" opacity="1.000000" stroke="none" 
	d="
M1.000000,170.000000 
	C1.000000,113.333336 1.000000,57.166668 1.000000,1.000000 
	C263.666656,1.000000 526.333313,1.000000 789.000000,1.000000 
	C789.000000,250.000000 789.000000,499.000000 789.000000,748.000000 
	C526.333313,748.000000 263.666656,748.000000 1.000000,748.000000 
	C1.000000,555.500000 1.000000,363.000000 1.000000,170.000000 
M10.131137,406.605194 
	C10.235306,445.898712 10.315323,485.192352 10.450127,524.485779 
	C10.598510,567.737305 10.783986,610.988831 10.993998,654.240112 
	C11.015665,658.702454 11.465711,663.163757 11.454945,667.624939 
	C11.427660,678.931946 11.041115,690.241638 11.204619,701.544373 
	C11.324331,709.819702 12.254063,718.080688 12.502906,726.357727 
	C12.652737,731.341309 14.688834,733.899719 19.661497,733.710388 
	C26.466850,733.451416 33.259991,732.646118 40.062828,732.586792 
	C63.988689,732.378052 88.016922,730.954041 111.822052,732.621582 
	C157.745026,735.838379 203.509628,741.171753 249.674637,740.298645 
	C267.962677,739.952637 286.270660,740.839966 304.568970,740.808899 
	C323.370911,740.776978 342.176361,739.932800 360.972351,740.145142 
	C377.721588,740.334290 394.453735,741.764038 411.204712,742.132202 
	C430.845856,742.563965 450.499725,742.389160 470.147156,742.573608 
	C485.106323,742.714050 500.183441,741.890320 514.995850,743.476868 
	C540.380188,746.195618 565.130188,744.019714 590.118103,739.404907 
	C606.182983,736.437988 622.789551,736.180786 639.184570,735.270935 
	C674.180542,733.328979 709.191589,731.633301 744.207947,730.098083 
	C754.828918,729.632446 765.491882,730.183289 776.124878,729.884583 
	C778.185974,729.826721 781.722046,728.250732 781.954163,726.918030 
	C782.751526,722.339294 782.852722,717.507263 782.353516,712.864868 
	C781.559937,705.484802 779.233582,698.203064 779.026855,690.838501 
	C778.340393,666.380920 778.261841,641.905334 778.045837,617.435852 
	C777.903564,601.325562 777.925720,585.213806 777.874512,569.102722 
	C777.863892,565.774780 778.154541,562.413452 777.788635,559.125122 
	C776.672546,549.094727 774.877319,539.124573 774.119263,529.072693 
	C772.369934,505.874817 770.757019,482.657379 769.678467,459.420502 
	C768.329102,430.349213 767.383667,401.255157 766.663330,372.161011 
	C766.425232,362.546265 767.788818,352.900665 767.782227,343.269592 
	C767.769470,324.649841 767.177917,306.031097 767.079590,287.410583 
	C767.032227,278.442139 767.649292,269.472198 767.801758,260.500153 
	C767.942566,252.215866 767.770203,243.926300 767.909546,235.641983 
	C768.049194,227.342972 768.843384,219.032410 768.557739,210.754272 
	C768.162598,199.306183 766.648743,187.894669 766.315857,176.447067 
	C766.006958,165.822281 767.188110,155.144211 766.693604,144.537125 
	C765.944580,128.470596 764.311829,112.445274 763.054749,96.402428 
	C762.976746,95.406158 762.870178,94.411049 762.827515,93.413231 
	C762.055481,75.356148 761.141907,57.303143 760.608276,39.238934 
	C760.427429,33.115086 761.531677,26.955221 761.387695,20.827343 
	C761.333923,18.541489 759.941406,15.312435 758.156372,14.323279 
	C756.460999,13.383816 753.436401,14.718760 751.031982,15.223447 
	C749.191467,15.609774 747.403931,16.731344 745.597412,16.721119 
	C728.120422,16.622190 710.643982,16.136940 693.168213,16.172281 
	C637.204834,16.285452 581.240479,16.913956 525.278931,16.701075 
	C465.675171,16.474339 406.147980,18.066732 346.594116,20.542269 
	C290.703979,22.865505 234.803925,20.419149 178.985229,16.515938 
	C150.630539,14.533190 122.220070,13.354817 93.839233,11.735531 
	C84.715805,11.214988 75.607841,10.427524 66.490318,9.798146 
	C57.206532,9.157290 47.925022,8.458175 38.632633,7.974349 
	C29.782322,7.513541 20.918949,7.305746 12.061932,6.970462 
	C8.054006,6.818742 6.291647,9.187058 6.043393,12.734828 
	C5.883025,15.026622 6.236526,17.385988 6.597535,19.677612 
	C9.303449,36.854279 13.062883,53.934906 14.569560,71.213280 
	C16.560575,94.045967 17.622267,117.031960 17.603502,139.950851 
	C17.574654,175.189316 19.581333,210.408997 15.551906,245.702179 
	C13.071439,267.428223 14.777364,289.622711 14.419806,311.603851 
	C14.165854,327.215790 13.836138,342.833374 13.116524,358.428894 
	C12.389803,374.178467 11.140743,389.903961 10.131137,406.605194 
z"/>
<path fill="#0F0F0F" opacity="1.000000" stroke="none" 
	d="
M10.125826,406.122589 
	C11.140743,389.903961 12.389803,374.178467 13.116524,358.428894 
	C13.836138,342.833374 14.165854,327.215790 14.419806,311.603851 
	C14.777364,289.622711 13.071439,267.428223 15.551906,245.702179 
	C19.581333,210.408997 17.574654,175.189316 17.603502,139.950851 
	C17.622267,117.031960 16.560575,94.045967 14.569560,71.213280 
	C13.062883,53.934906 9.303449,36.854279 6.597535,19.677612 
	C6.236526,17.385988 5.883025,15.026622 6.043393,12.734828 
	C6.291647,9.187058 8.054006,6.818742 12.061932,6.970462 
	C20.918949,7.305746 29.782322,7.513541 38.632633,7.974349 
	C47.925022,8.458175 57.206532,9.157290 66.490318,9.798146 
	C75.607841,10.427524 84.715805,11.214988 93.839233,11.735531 
	C122.220070,13.354817 150.630539,14.533190 178.985229,16.515938 
	C234.803925,20.419149 290.703979,22.865505 346.594116,20.542269 
	C406.147980,18.066732 465.675171,16.474339 525.278931,16.701075 
	C581.240479,16.913956 637.204834,16.285452 693.168213,16.172281 
	C710.643982,16.136940 728.120422,16.622190 745.597412,16.721119 
	C747.403931,16.731344 749.191467,15.609774 751.031982,15.223447 
	C753.436401,14.718760 756.460999,13.383816 758.156372,14.323279 
	C759.941406,15.312435 761.333923,18.541489 761.387695,20.827343 
	C761.531677,26.955221 760.427429,33.115086 760.608276,39.238934 
	C761.141907,57.303143 762.055481,75.356148 762.827515,93.413231 
	C762.870178,94.411049 762.976746,95.406158 763.054749,96.402428 
	C764.311829,112.445274 765.944580,128.470596 766.693604,144.537125 
	C767.188110,155.144211 766.006958,165.822281 766.315857,176.447067 
	C766.648743,187.894669 768.162598,199.306183 768.557739,210.754272 
	C768.843384,219.032410 768.049194,227.342972 767.909546,235.641983 
	C767.770203,243.926300 767.942566,252.215866 767.801758,260.500153 
	C767.649292,269.472198 767.032227,278.442139 767.079590,287.410583 
	C767.177917,306.031097 767.769470,324.649841 767.782227,343.269592 
	C767.788818,352.900665 766.425232,362.546265 766.663330,372.161011 
	C767.383667,401.255157 768.329102,430.349213 769.678467,459.420502 
	C770.757019,482.657379 772.369934,505.874817 774.119263,529.072693 
	C774.877319,539.124573 776.672546,549.094727 777.788635,559.125122 
	C778.154541,562.413452 777.863892,565.774780 777.874512,569.102722 
	C777.925720,585.213806 777.903564,601.325562 778.045837,617.435852 
	C778.261841,641.905334 778.340393,666.380920 779.026855,690.838501 
	C779.233582,698.203064 781.559937,705.484802 782.353516,712.864868 
	C782.852722,717.507263 782.751526,722.339294 781.954163,726.918030 
	C781.722046,728.250732 778.185974,729.826721 776.124878,729.884583 
	C765.491882,730.183289 754.828918,729.632446 744.207947,730.098083 
	C709.191589,731.633301 674.180542,733.328979 639.184570,735.270935 
	C622.789551,736.180786 606.182983,736.437988 590.118103,739.404907 
	C565.130188,744.019714 540.380188,746.195618 514.995850,743.476868 
	C500.183441,741.890320 485.106323,742.714050 470.147156,742.573608 
	C450.499725,742.389160 430.845856,742.563965 411.204712,742.132202 
	C394.453735,741.764038 377.721588,740.334290 360.972351,740.145142 
	C342.176361,739.932800 323.370911,740.776978 304.568970,740.808899 
	C286.270660,740.839966 267.962677,739.952637 249.674637,740.298645 
	C203.509628,741.171753 157.745026,735.838379 111.822052,732.621582 
	C88.016922,730.954041 63.988689,732.378052 40.062828,732.586792 
	C33.259991,732.646118 26.466850,733.451416 19.661497,733.710388 
	C14.688834,733.899719 12.652737,731.341309 12.502906,726.357727 
	C12.254063,718.080688 11.324331,709.819702 11.204619,701.544373 
	C11.041115,690.241638 11.427660,678.931946 11.454945,667.624939 
	C11.465711,663.163757 11.015665,658.702454 10.993998,654.240112 
	C10.783986,610.988831 10.598510,567.737305 10.450127,524.485779 
	C10.315323,485.192352 10.235306,445.898712 10.125826,406.122589 
M353.330841,25.269884 
	C352.509888,25.364025 351.688629,25.542690 350.867981,25.540123 
	C318.406525,25.438576 285.919037,26.096750 253.490387,25.006004 
	C213.956146,23.676262 174.476685,20.771400 134.963501,18.743364 
	C105.600098,17.236271 76.248848,15.240965 46.807384,17.731176 
	C37.358307,18.530397 27.784618,17.856382 17.799726,17.856382 
	C18.520380,28.322134 19.465967,38.071564 19.813053,47.842258 
	C20.852282,77.097412 22.149988,106.356186 22.428829,135.622284 
	C22.774530,171.905640 22.179152,208.197678 22.033468,244.486145 
	C21.967943,260.807770 22.403435,277.142303 21.889357,293.448242 
	C21.355423,310.383972 19.698933,327.281555 18.978384,344.214783 
	C17.663813,375.107758 16.204184,406.006714 15.682580,436.917999 
	C15.117483,470.406830 15.495146,503.912781 15.573800,537.410950 
	C15.634000,563.049622 15.825122,588.688171 16.043785,614.326050 
	C16.155851,627.465210 16.201710,640.613342 16.747307,653.737854 
	C17.227524,665.289612 18.380560,676.812805 19.201525,688.351074 
	C19.988890,699.417297 20.731337,710.486633 21.487297,721.464233 
	C38.596874,722.659668 55.176289,723.782349 71.749916,724.984741 
	C93.792198,726.583923 115.821732,728.367920 137.871887,729.846802 
	C161.236816,731.413818 184.604401,733.498535 207.997955,733.949341 
	C242.424927,734.612549 276.878815,733.727539 311.315857,734.061035 
	C344.041565,734.377930 376.758911,735.490967 409.482880,736.094299 
	C422.792114,736.339600 436.109192,736.139526 449.422546,736.184937 
	C468.053833,736.248474 486.734161,735.539917 505.302582,736.663757 
	C524.423462,737.821045 543.448120,738.759583 562.500366,736.490234 
	C580.610535,734.333130 598.676208,731.787964 616.803772,729.798767 
	C623.367126,729.078552 630.058289,729.605164 636.682007,729.336914 
	C656.095093,728.550720 675.503296,727.640564 694.914368,726.802490 
	C700.385803,726.566284 705.883606,726.664734 711.329651,726.171021 
	C726.971130,724.753235 742.182068,719.423340 758.217285,721.325928 
	C763.044983,721.898743 767.998047,721.414551 772.557617,721.414551 
	C771.814819,710.893982 770.592529,701.197571 770.571167,691.498535 
	C770.539001,676.872314 771.540649,662.246887 771.736816,647.616150 
	C771.906189,634.985474 771.511108,622.348145 771.462646,609.713379 
	C771.398804,593.097900 771.849976,576.467834 771.292725,559.870483 
	C770.813843,545.606079 769.015259,531.391479 768.177551,517.132629 
	C766.149841,482.617828 763.901489,448.107025 762.575195,413.562622 
	C761.357727,381.852600 759.976013,350.141327 761.234436,318.350281 
	C761.956726,300.105408 760.236267,281.777405 760.194519,263.485504 
	C760.131714,235.921371 761.171509,208.344299 760.626038,180.794815 
	C760.143188,156.401489 758.142212,132.038010 756.800171,107.661964 
	C756.160583,96.045586 755.788391,84.404449 754.754333,72.822807 
	C753.811951,62.266685 752.015564,51.789627 750.834473,41.250950 
	C750.134521,35.006084 749.897278,28.709358 749.440002,22.266750 
	C748.126831,22.120207 746.993042,21.896603 745.856384,21.881088 
	C720.052490,21.528971 694.247620,20.875542 668.444275,20.931025 
	C607.974609,21.061049 547.505676,21.536055 487.036438,21.864054 
	C467.541992,21.969795 448.038239,21.709034 428.555267,22.232231 
	C403.792084,22.897224 379.045746,24.189169 353.330841,25.269884 
z"/>
<path fill="#F8F8F8" opacity="1.000000" stroke="none" 
	d="
M353.811493,25.240341 
	C379.045746,24.189169 403.792084,22.897224 428.555267,22.232231 
	C448.038239,21.709034 467.541992,21.969795 487.036438,21.864054 
	C547.505676,21.536055 607.974609,21.061049 668.444275,20.931025 
	C694.247620,20.875542 720.052490,21.528971 745.856384,21.881088 
	C746.993042,21.896603 748.126831,22.120207 749.440002,22.266750 
	C749.897278,28.709358 750.134521,35.006084 750.834473,41.250950 
	C752.015564,51.789627 753.811951,62.266685 754.754333,72.822807 
	C755.788391,84.404449 756.160583,96.045586 756.800171,107.661964 
	C758.142212,132.038010 760.143188,156.401489 760.626038,180.794815 
	C761.171509,208.344299 760.131714,235.921371 760.194519,263.485504 
	C760.236267,281.777405 761.956726,300.105408 761.234436,318.350281 
	C759.976013,350.141327 761.357727,381.852600 762.575195,413.562622 
	C763.901489,448.107025 766.149841,482.617828 768.177551,517.132629 
	C769.015259,531.391479 770.813843,545.606079 771.292725,559.870483 
	C771.849976,576.467834 771.398804,593.097900 771.462646,609.713379 
	C771.511108,622.348145 771.906189,634.985474 771.736816,647.616150 
	C771.540649,662.246887 770.539001,676.872314 770.571167,691.498535 
	C770.592529,701.197571 771.814819,710.893982 772.557617,721.414551 
	C767.998047,721.414551 763.044983,721.898743 758.217285,721.325928 
	C742.182068,719.423340 726.971130,724.753235 711.329651,726.171021 
	C705.883606,726.664734 700.385803,726.566284 694.914368,726.802490 
	C675.503296,727.640564 656.095093,728.550720 636.682007,729.336914 
	C630.058289,729.605164 623.367126,729.078552 616.803772,729.798767 
	C598.676208,731.787964 580.610535,734.333130 562.500366,736.490234 
	C543.448120,738.759583 524.423462,737.821045 505.302582,736.663757 
	C486.734161,735.539917 468.053833,736.248474 449.422546,736.184937 
	C436.109192,736.139526 422.792114,736.339600 409.482880,736.094299 
	C376.758911,735.490967 344.041565,734.377930 311.315857,734.061035 
	C276.878815,733.727539 242.424927,734.612549 207.997955,733.949341 
	C184.604401,733.498535 161.236816,731.413818 137.871887,729.846802 
	C115.821732,728.367920 93.792198,726.583923 71.749916,724.984741 
	C55.176289,723.782349 38.596874,722.659668 21.487297,721.464233 
	C20.731337,710.486633 19.988890,699.417297 19.201525,688.351074 
	C18.380560,676.812805 17.227524,665.289612 16.747307,653.737854 
	C16.201710,640.613342 16.155851,627.465210 16.043785,614.326050 
	C15.825122,588.688171 15.634000,563.049622 15.573800,537.410950 
	C15.495146,503.912781 15.117483,470.406830 15.682580,436.917999 
	C16.204184,406.006714 17.663813,375.107758 18.978384,344.214783 
	C19.698933,327.281555 21.355423,310.383972 21.889357,293.448242 
	C22.403435,277.142303 21.967943,260.807770 22.033468,244.486145 
	C22.179152,208.197678 22.774530,171.905640 22.428829,135.622284 
	C22.149988,106.356186 20.852282,77.097412 19.813053,47.842258 
	C19.465967,38.071564 18.520380,28.322134 17.799726,17.856382 
	C27.784618,17.856382 37.358307,18.530397 46.807384,17.731176 
	C76.248848,15.240965 105.600098,17.236271 134.963501,18.743364 
	C174.476685,20.771400 213.956146,23.676262 253.490387,25.006004 
	C285.919037,26.096750 318.406525,25.438576 350.867981,25.540123 
	C351.688629,25.542690 352.509888,25.364025 353.811493,25.240341 
M35.814919,120.498497 
	C35.878120,125.486298 36.094166,130.477600 35.979694,135.461334 
	C35.242683,167.547592 35.500927,199.572357 37.717106,231.646469 
	C39.396408,255.950562 38.905060,280.413513 39.107761,304.808014 
	C39.274704,324.898712 39.018845,344.992645 38.993580,365.085205 
	C38.965816,387.169708 38.989079,409.254242 38.985912,431.338776 
	C38.985435,434.665619 38.967583,437.992493 38.948513,441.319305 
	C38.845577,459.277527 39.109028,477.247284 38.547424,495.191193 
	C37.726433,521.422791 36.263966,547.633850 35.198811,573.858643 
	C35.017513,578.322266 35.709988,582.819275 35.564590,587.286743 
	C34.958611,605.906006 33.173523,624.551208 33.748550,643.127258 
	C34.377014,663.429382 31.593603,683.622925 32.975311,703.887512 
	C33.002312,704.283447 32.344074,704.690857 32.276272,705.134277 
	C31.900923,707.589294 30.472492,711.085022 31.554008,712.281433 
	C33.206032,714.109070 36.648949,715.238098 39.266487,715.127319 
	C60.530678,714.227112 81.741058,713.115173 103.063850,714.712280 
	C121.434692,716.088318 139.898911,716.264587 158.326309,716.824219 
	C173.770004,717.293213 189.346542,716.455566 204.630432,718.220886 
	C218.770935,719.854126 232.770065,718.584351 246.817886,719.127930 
	C257.590576,719.544739 268.385071,719.363647 279.166321,719.606689 
	C284.601166,719.729187 290.033691,720.530396 295.457275,720.438110 
	C302.931946,720.310974 310.397461,719.256653 317.866333,719.263123 
	C332.667816,719.275879 347.469269,719.971985 362.270142,719.952209 
	C374.902863,719.935364 387.545258,718.809204 400.164642,719.072021 
	C420.111908,719.487488 440.049561,721.445251 459.980103,721.292297 
	C482.205200,721.121948 504.408569,719.031250 526.638855,718.325439 
	C543.893799,717.777527 561.175537,718.054626 578.445435,718.000916 
	C588.917480,717.968323 599.394592,718.207764 609.860596,717.956543 
	C622.466980,717.653931 635.059998,716.795044 647.666321,716.492859 
	C656.454346,716.282227 665.255554,716.707092 674.049988,716.666199 
	C696.305115,716.562744 718.559753,716.356689 740.814575,716.191833 
	C743.567932,716.171448 746.474182,715.570374 749.044373,716.246643 
	C755.310181,717.895325 756.712463,716.743713 756.922546,710.185242 
	C757.496033,692.282349 758.420959,674.390991 759.131409,656.492065 
	C759.505310,647.071472 759.976135,637.642822 759.907715,628.221375 
	C759.870605,623.115540 758.518555,618.032288 758.238464,612.912659 
	C757.507019,599.542053 758.689941,586.255737 757.387512,572.713684 
	C755.053894,548.451111 756.021912,523.874939 755.487793,499.432526 
	C755.364746,493.800110 754.850281,488.169098 754.336731,482.553833 
	C753.293335,471.144714 751.422729,459.761749 751.180420,448.340668 
	C750.831604,431.903381 750.812317,415.375061 752.144897,399.007141 
	C753.842102,378.160919 751.220764,357.598816 750.191589,336.922516 
	C749.096436,314.922302 747.892883,292.927216 746.885681,270.923065 
	C746.513062,262.782867 747.032471,254.581528 746.310181,246.482544 
	C745.295654,235.106750 742.927368,223.839188 742.160095,212.456436 
	C740.483643,187.584595 739.277161,162.676651 738.229370,137.768723 
	C737.705078,125.305435 737.890381,112.809883 737.864685,100.328705 
	C737.838745,87.722191 737.859070,75.114120 738.037964,62.509266 
	C738.125183,56.362049 738.829468,50.222027 738.871033,44.076153 
	C738.914124,37.713882 735.936340,34.351810 731.284058,34.558483 
	C720.660461,35.030430 710.035339,35.531368 699.405212,35.779312 
	C688.592651,36.031509 677.737671,35.471104 666.965454,36.206715 
	C650.762268,37.313194 634.641785,39.689484 618.434265,40.654564 
	C607.846924,41.284981 597.166504,40.141537 586.529907,40.197006 
	C558.768250,40.341782 531.006470,41.005981 503.247375,40.881737 
	C485.134979,40.800671 467.031342,39.433884 448.915863,39.151207 
	C435.651550,38.944233 422.371155,39.875763 409.103668,39.739746 
	C390.158539,39.545521 371.214844,38.953426 352.277588,38.319550 
	C333.198853,37.680931 314.082581,37.354847 295.069519,35.818329 
	C279.918121,34.593887 264.954010,31.015114 249.801575,29.852268 
	C236.275879,28.814266 222.604050,29.507442 209.000610,29.705170 
	C195.731522,29.898033 182.467407,30.432274 169.201035,30.813522 
	C166.560318,30.889410 163.918243,30.925743 161.278412,31.023510 
	C139.727264,31.821651 118.176796,33.230415 96.625557,33.240143 
	C80.198586,33.247555 63.772758,31.449938 47.342571,30.523586 
	C39.048588,30.055960 35.343311,33.477379 35.002354,41.750214 
	C34.940800,43.243809 35.082653,44.744789 35.097519,46.242687 
	C35.339855,70.660751 35.576855,95.078873 35.814919,120.498497 
z"/>
<path fill="#080808" opacity="1.000000" stroke="none" 
	d="
M35.814991,119.997742 
	C35.576855,95.078873 35.339855,70.660751 35.097519,46.242687 
	C35.082653,44.744789 34.940800,43.243809 35.002354,41.750214 
	C35.343311,33.477379 39.048588,30.055960 47.342571,30.523586 
	C63.772758,31.449938 80.198586,33.247555 96.625557,33.240143 
	C118.176796,33.230415 139.727264,31.821651 161.278412,31.023510 
	C163.918243,30.925743 166.560318,30.889410 169.201035,30.813522 
	C182.467407,30.432274 195.731522,29.898033 209.000610,29.705170 
	C222.604050,29.507442 236.275879,28.814266 249.801575,29.852268 
	C264.954010,31.015114 279.918121,34.593887 295.069519,35.818329 
	C314.082581,37.354847 333.198853,37.680931 352.277588,38.319550 
	C371.214844,38.953426 390.158539,39.545521 409.103668,39.739746 
	C422.371155,39.875763 435.651550,38.944233 448.915863,39.151207 
	C467.031342,39.433884 485.134979,40.800671 503.247375,40.881737 
	C531.006470,41.005981 558.768250,40.341782 586.529907,40.197006 
	C597.166504,40.141537 607.846924,41.284981 618.434265,40.654564 
	C634.641785,39.689484 650.762268,37.313194 666.965454,36.206715 
	C677.737671,35.471104 688.592651,36.031509 699.405212,35.779312 
	C710.035339,35.531368 720.660461,35.030430 731.284058,34.558483 
	C735.936340,34.351810 738.914124,37.713882 738.871033,44.076153 
	C738.829468,50.222027 738.125183,56.362049 738.037964,62.509266 
	C737.859070,75.114120 737.838745,87.722191 737.864685,100.328705 
	C737.890381,112.809883 737.705078,125.305435 738.229370,137.768723 
	C739.277161,162.676651 740.483643,187.584595 742.160095,212.456436 
	C742.927368,223.839188 745.295654,235.106750 746.310181,246.482544 
	C747.032471,254.581528 746.513062,262.782867 746.885681,270.923065 
	C747.892883,292.927216 749.096436,314.922302 750.191589,336.922516 
	C751.220764,357.598816 753.842102,378.160919 752.144897,399.007141 
	C750.812317,415.375061 750.831604,431.903381 751.180420,448.340668 
	C751.422729,459.761749 753.293335,471.144714 754.336731,482.553833 
	C754.850281,488.169098 755.364746,493.800110 755.487793,499.432526 
	C756.021912,523.874939 755.053894,548.451111 757.387512,572.713684 
	C758.689941,586.255737 757.507019,599.542053 758.238464,612.912659 
	C758.518555,618.032288 759.870605,623.115540 759.907715,628.221375 
	C759.976135,637.642822 759.505310,647.071472 759.131409,656.492065 
	C758.420959,674.390991 757.496033,692.282349 756.922546,710.185242 
	C756.712463,716.743713 755.310181,717.895325 749.044373,716.246643 
	C746.474182,715.570374 743.567932,716.171448 740.814575,716.191833 
	C718.559753,716.356689 696.305115,716.562744 674.049988,716.666199 
	C665.255554,716.707092 656.454346,716.282227 647.666321,716.492859 
	C635.059998,716.795044 622.466980,717.653931 609.860596,717.956543 
	C599.394592,718.207764 588.917480,717.968323 578.445435,718.000916 
	C561.175537,718.054626 543.893799,717.777527 526.638855,718.325439 
	C504.408569,719.031250 482.205200,721.121948 459.980103,721.292297 
	C440.049561,721.445251 420.111908,719.487488 400.164642,719.072021 
	C387.545258,718.809204 374.902863,719.935364 362.270142,719.952209 
	C347.469269,719.971985 332.667816,719.275879 317.866333,719.263123 
	C310.397461,719.256653 302.931946,720.310974 295.457275,720.438110 
	C290.033691,720.530396 284.601166,719.729187 279.166321,719.606689 
	C268.385071,719.363647 257.590576,719.544739 246.817886,719.127930 
	C232.770065,718.584351 218.770935,719.854126 204.630432,718.220886 
	C189.346542,716.455566 173.770004,717.293213 158.326309,716.824219 
	C139.898911,716.264587 121.434692,716.088318 103.063850,714.712280 
	C81.741058,713.115173 60.530678,714.227112 39.266487,715.127319 
	C36.648949,715.238098 33.206032,714.109070 31.554008,712.281433 
	C30.472492,711.085022 31.900923,707.589294 32.276272,705.134277 
	C32.344074,704.690857 33.002312,704.283447 32.975311,703.887512 
	C31.593603,683.622925 34.377014,663.429382 33.748550,643.127258 
	C33.173523,624.551208 34.958611,605.906006 35.564590,587.286743 
	C35.709988,582.819275 35.017513,578.322266 35.198811,573.858643 
	C36.263966,547.633850 37.726433,521.422791 38.547424,495.191193 
	C39.109028,477.247284 38.845577,459.277527 38.948513,441.319305 
	C38.967583,437.992493 38.985435,434.665619 38.985912,431.338776 
	C38.989079,409.254242 38.965816,387.169708 38.993580,365.085205 
	C39.018845,344.992645 39.274704,324.898712 39.107761,304.808014 
	C38.905060,280.413513 39.396408,255.950562 37.717106,231.646469 
	C35.500927,199.572357 35.242683,167.547592 35.979694,135.461334 
	C36.094166,130.477600 35.878120,125.486298 35.814991,119.997742 
M46.182068,420.055939 
	C46.295803,437.628052 46.573090,455.201294 46.455952,472.771851 
	C46.395172,481.889252 45.592308,491.000122 45.218769,500.117828 
	C45.096893,503.092682 45.875835,506.221405 45.214355,509.038269 
	C40.818474,527.757874 43.213730,546.793701 42.379128,565.666443 
	C41.822975,578.242676 42.282616,590.862183 42.208244,603.461853 
	C42.077187,625.665588 41.859180,647.868896 41.730232,670.072632 
	C41.666210,681.096069 41.719105,692.120178 41.719105,703.639832 
	C43.440765,703.734009 45.730301,703.850647 48.018753,703.985718 
	C65.262039,705.003296 82.641335,705.005249 99.715897,707.286926 
	C124.464256,710.594055 149.143967,706.992371 173.814957,708.362122 
	C183.889114,708.921387 193.961319,709.553040 204.020309,710.333496 
	C209.129272,710.729919 214.193924,711.884583 219.301514,712.071716 
	C229.234955,712.435791 239.184677,712.348206 249.127411,712.468201 
	C262.544159,712.630066 275.961823,712.752625 289.376953,713.005859 
	C297.516418,713.159546 305.658569,713.884827 313.787750,713.731018 
	C334.856781,713.332397 355.916290,712.310059 376.985474,712.084534 
	C390.410797,711.940674 403.845673,712.810547 417.278076,713.154419 
	C424.568176,713.341064 431.864929,713.553772 439.153595,713.437561 
	C447.780090,713.300049 456.411896,712.374756 465.022278,712.582581 
	C482.727478,713.009766 500.294342,715.250366 518.136047,712.115540 
	C529.257812,710.161499 540.929016,711.253235 552.355286,711.130188 
	C577.598389,710.858215 602.844055,710.783142 628.085449,710.409607 
	C636.199158,710.289490 644.298706,709.401733 652.411743,709.010803 
	C675.748596,707.886169 699.138000,710.971497 722.492188,707.644165 
	C730.724060,706.471375 739.263428,707.456787 747.854187,707.456787 
	C747.854187,703.771301 747.815857,701.113403 747.860779,698.457031 
	C748.053772,687.037598 747.795410,675.584839 748.601135,664.207947 
	C749.595825,650.164795 752.324646,636.210327 752.751526,622.170410 
	C753.194397,607.601746 752.013000,592.962463 751.120728,578.379883 
	C750.078308,561.345215 746.188904,544.462463 748.738342,527.238342 
	C749.145508,524.487305 748.674255,521.600647 748.558228,518.778809 
	C748.149475,508.838104 747.711304,498.898651 747.298401,488.958130 
	C746.968018,481.002808 747.549500,472.889099 746.176270,465.119659 
	C741.574768,439.085175 740.629639,413.018677 743.424500,386.762085 
	C744.092041,380.490906 744.981689,374.164520 744.783630,367.894623 
	C744.149841,347.824982 743.063782,327.769501 742.132080,307.709473 
	C741.484558,293.768280 740.902100,279.822968 740.099670,265.890503 
	C739.643494,257.971191 738.641724,250.083633 738.167725,242.164886 
	C736.978027,222.290329 736.337646,202.374786 734.737549,182.535324 
	C733.342407,165.237534 730.392456,148.060181 729.154907,130.756271 
	C728.197632,117.371742 728.912292,103.872620 728.726135,90.426620 
	C728.524780,75.878906 728.140503,61.333729 727.809814,45.534424 
	C717.428406,45.534424 708.143616,45.534359 698.858765,45.534435 
	C681.623047,45.534584 664.387268,45.565762 647.151672,45.516098 
	C641.998901,45.501255 636.839355,45.011860 631.695801,45.167530 
	C612.600952,45.745449 593.515320,46.668285 574.418213,47.117622 
	C565.444275,47.328770 556.451721,46.565262 547.468018,46.577713 
	C523.049133,46.611557 498.629913,46.992783 474.212006,46.905930 
	C457.927704,46.848007 441.640839,46.361950 425.363434,45.818695 
	C404.470917,45.121410 383.581757,46.300228 362.653900,44.450199 
	C344.959106,42.885986 327.067047,43.613773 309.267639,43.131207 
	C304.648682,43.005981 300.053467,42.110191 295.440796,41.631348 
	C279.952454,40.023495 264.492828,37.723919 248.962769,37.041336 
	C230.727188,36.239834 212.427460,36.689163 194.159332,36.908989 
	C181.873917,37.056820 169.594864,37.742645 157.313293,38.196686 
	C142.606613,38.740383 127.903168,39.393188 113.193123,39.819283 
	C91.162926,40.457413 69.128181,40.939140 46.989315,41.490028 
	C46.763424,43.387249 46.565662,44.339813 46.548889,45.295551 
	C46.306866,59.084686 45.980957,72.873550 45.892578,86.663879 
	C45.777870,104.562462 45.784325,122.462692 45.881569,140.361435 
	C45.933990,150.010620 46.561890,159.661636 46.442123,169.305756 
	C46.202839,188.574112 45.440472,207.836807 45.289009,227.104950 
	C45.233608,234.152130 46.699978,241.203781 46.776463,248.260925 
	C46.993946,268.326691 46.852844,288.396332 46.853096,308.464447 
	C46.853321,326.735229 46.950222,345.006622 46.827335,363.276581 
	C46.702061,381.901733 46.360786,400.525421 46.182068,420.055939 
z"/>
<path fill="#FAFAFA" opacity="1.000000" stroke="none" 
	d="
M46.148075,419.602844 
	C46.360786,400.525421 46.702061,381.901733 46.827335,363.276581 
	C46.950222,345.006622 46.853321,326.735229 46.853096,308.464447 
	C46.852844,288.396332 46.993946,268.326691 46.776463,248.260925 
	C46.699978,241.203781 45.233608,234.152130 45.289009,227.104950 
	C45.440472,207.836807 46.202839,188.574112 46.442123,169.305756 
	C46.561890,159.661636 45.933990,150.010620 45.881569,140.361435 
	C45.784325,122.462692 45.777870,104.562462 45.892578,86.663879 
	C45.980957,72.873550 46.306866,59.084686 46.548889,45.295551 
	C46.565662,44.339813 46.763424,43.387249 46.989315,41.490028 
	C69.128181,40.939140 91.162926,40.457413 113.193123,39.819283 
	C127.903168,39.393188 142.606613,38.740383 157.313293,38.196686 
	C169.594864,37.742645 181.873917,37.056820 194.159332,36.908989 
	C212.427460,36.689163 230.727188,36.239834 248.962769,37.041336 
	C264.492828,37.723919 279.952454,40.023495 295.440796,41.631348 
	C300.053467,42.110191 304.648682,43.005981 309.267639,43.131207 
	C327.067047,43.613773 344.959106,42.885986 362.653900,44.450199 
	C383.581757,46.300228 404.470917,45.121410 425.363434,45.818695 
	C441.640839,46.361950 457.927704,46.848007 474.212006,46.905930 
	C498.629913,46.992783 523.049133,46.611557 547.468018,46.577713 
	C556.451721,46.565262 565.444275,47.328770 574.418213,47.117622 
	C593.515320,46.668285 612.600952,45.745449 631.695801,45.167530 
	C636.839355,45.011860 641.998901,45.501255 647.151672,45.516098 
	C664.387268,45.565762 681.623047,45.534584 698.858765,45.534435 
	C708.143616,45.534359 717.428406,45.534424 727.809814,45.534424 
	C728.140503,61.333729 728.524780,75.878906 728.726135,90.426620 
	C728.912292,103.872620 728.197632,117.371742 729.154907,130.756271 
	C730.392456,148.060181 733.342407,165.237534 734.737549,182.535324 
	C736.337646,202.374786 736.978027,222.290329 738.167725,242.164886 
	C738.641724,250.083633 739.643494,257.971191 740.099670,265.890503 
	C740.902100,279.822968 741.484558,293.768280 742.132080,307.709473 
	C743.063782,327.769501 744.149841,347.824982 744.783630,367.894623 
	C744.981689,374.164520 744.092041,380.490906 743.424500,386.762085 
	C740.629639,413.018677 741.574768,439.085175 746.176270,465.119659 
	C747.549500,472.889099 746.968018,481.002808 747.298401,488.958130 
	C747.711304,498.898651 748.149475,508.838104 748.558228,518.778809 
	C748.674255,521.600647 749.145508,524.487305 748.738342,527.238342 
	C746.188904,544.462463 750.078308,561.345215 751.120728,578.379883 
	C752.013000,592.962463 753.194397,607.601746 752.751526,622.170410 
	C752.324646,636.210327 749.595825,650.164795 748.601135,664.207947 
	C747.795410,675.584839 748.053772,687.037598 747.860779,698.457031 
	C747.815857,701.113403 747.854187,703.771301 747.854187,707.456787 
	C739.263428,707.456787 730.724060,706.471375 722.492188,707.644165 
	C699.138000,710.971497 675.748596,707.886169 652.411743,709.010803 
	C644.298706,709.401733 636.199158,710.289490 628.085449,710.409607 
	C602.844055,710.783142 577.598389,710.858215 552.355286,711.130188 
	C540.929016,711.253235 529.257812,710.161499 518.136047,712.115540 
	C500.294342,715.250366 482.727478,713.009766 465.022278,712.582581 
	C456.411896,712.374756 447.780090,713.300049 439.153595,713.437561 
	C431.864929,713.553772 424.568176,713.341064 417.278076,713.154419 
	C403.845673,712.810547 390.410797,711.940674 376.985474,712.084534 
	C355.916290,712.310059 334.856781,713.332397 313.787750,713.731018 
	C305.658569,713.884827 297.516418,713.159546 289.376953,713.005859 
	C275.961823,712.752625 262.544159,712.630066 249.127411,712.468201 
	C239.184677,712.348206 229.234955,712.435791 219.301514,712.071716 
	C214.193924,711.884583 209.129272,710.729919 204.020309,710.333496 
	C193.961319,709.553040 183.889114,708.921387 173.814957,708.362122 
	C149.143967,706.992371 124.464256,710.594055 99.715897,707.286926 
	C82.641335,705.005249 65.262039,705.003296 48.018753,703.985718 
	C45.730301,703.850647 43.440765,703.734009 41.719105,703.639832 
	C41.719105,692.120178 41.666210,681.096069 41.730232,670.072632 
	C41.859180,647.868896 42.077187,625.665588 42.208244,603.461853 
	C42.282616,590.862183 41.822975,578.242676 42.379128,565.666443 
	C43.213730,546.793701 40.818474,527.757874 45.214355,509.038269 
	C45.875835,506.221405 45.096893,503.092682 45.218769,500.117828 
	C45.592308,491.000122 46.395172,481.889252 46.455952,472.771851 
	C46.573090,455.201294 46.295803,437.628052 46.148075,419.602844 
z"/>
</svg>