<svg version="1.1" id="Layer_1" xmlns="http://www.w3.org/2000/svg" xmlns:xlink="http://www.w3.org/1999/xlink" x="0px" y="0px"
	 width="100%" viewBox="0 0 464 432" enable-background="new 0 0 464 432" xml:space="preserve">
<circle cx="234" cy="218" r="240" fill="#ffffff"/>
<path fill="#000000" opacity="1.000000" stroke="none" 
	d="
M465.000000,259.531342 
	C462.909515,270.289673 459.490936,280.197266 456.104797,290.095612 
	C451.569824,303.352112 444.946228,315.718170 439.121216,328.416870 
	C434.972534,337.461090 431.046295,346.650024 424.578857,354.481232 
	C414.170288,367.084625 400.916260,375.899567 386.383759,382.662689 
	C370.553253,390.029846 353.882019,395.651672 338.299774,403.473602 
	C323.097015,411.104950 306.928894,414.949615 290.746887,419.151276 
	C289.941254,419.360474 289.106354,419.521729 288.352936,419.857544 
	C270.996124,427.593567 252.514877,427.491119 234.103577,427.370361 
	C225.574554,427.314453 217.303238,429.251465 208.802353,429.483307 
	C192.685226,429.922913 176.774368,430.696808 160.973618,425.613922 
	C145.474411,420.627960 129.187744,418.524445 113.320641,414.787659 
	C93.197159,410.048553 79.313568,398.397217 68.085869,382.079956 
	C58.526173,368.186829 51.267693,353.003387 43.480099,338.164673 
	C32.781719,317.779602 26.325481,295.619446 18.866024,273.906311 
	C15.515022,264.152191 12.375370,254.298218 10.785555,244.144562 
	C9.115952,233.481369 8.914505,222.621262 8.778230,211.811188 
	C8.731976,208.142197 8.601623,204.506119 8.204719,200.848312 
	C7.482061,194.188400 8.348969,187.768738 10.027445,181.151062 
	C14.570243,163.240326 20.269516,145.624191 23.883627,127.480057 
	C24.577477,123.996681 25.889235,120.737366 27.502752,117.663704 
	C35.381714,102.654678 40.166264,86.181694 49.758068,71.947250 
	C55.246983,63.801594 62.984783,57.914631 69.161606,50.512680 
	C81.563698,35.650723 98.396355,28.399128 116.422043,23.280739 
	C128.726669,19.786844 140.994125,16.130381 153.400558,13.037409 
	C162.259018,10.828956 171.327179,9.186371 180.528671,9.730224 
	C188.933731,10.227005 197.011246,7.866077 205.305817,7.293366 
	C213.263992,6.743882 221.275009,6.400943 229.185028,6.345664 
	C240.329575,6.267780 251.478302,5.426677 262.605103,5.854733 
	C279.547150,6.506505 296.510498,7.069830 313.292053,9.976386 
	C318.681091,10.909766 324.211029,11.607841 329.659668,11.506805 
	C343.912476,11.242513 355.421204,18.698235 367.529175,24.407431 
	C372.467224,26.735853 377.122955,29.760637 381.645203,32.851803 
	C389.637115,38.314636 397.555481,44.038891 402.245972,52.828716 
	C406.036163,59.931351 413.349976,63.935272 417.385864,70.651100 
	C427.338287,87.212173 436.224731,104.372986 442.861420,122.525497 
	C449.765198,141.408569 455.938660,160.560577 462.287689,179.642822 
	C463.433685,183.087173 463.884735,186.762741 464.828308,190.665771 
	C465.000000,213.687561 465.000000,236.375122 465.000000,259.531342 
M450.131989,277.725433 
	C454.489594,265.346344 459.937439,253.204712 458.685913,239.576050 
	C457.050781,221.769348 457.974579,203.905960 453.540314,186.119400 
	C449.313690,169.165817 444.131866,152.542984 439.494507,135.740799 
	C437.482056,128.449371 432.887604,122.250679 430.612213,115.145409 
	C421.958710,88.123398 404.442566,66.822350 386.320831,45.938011 
	C377.758636,36.070511 365.577850,31.621969 354.138824,26.320242 
	C343.692474,21.478628 332.832886,17.847908 321.041534,17.637142 
	C314.399017,17.518412 307.724915,16.888472 301.145874,15.932282 
	C282.923676,13.283878 264.579346,14.101454 246.325333,14.334365 
	C224.397675,14.614149 202.597458,18.101423 180.614990,18.258369 
	C173.954514,18.305920 167.350159,18.897116 160.833420,20.606123 
	C144.271408,24.949493 127.563820,28.695154 111.599113,35.148724 
	C100.060928,39.812923 88.565468,44.980679 80.239601,54.132809 
	C69.876160,65.524719 59.117508,76.743782 51.247540,90.270729 
	C43.002438,104.442444 35.870747,118.931244 32.481247,135.169556 
	C28.874399,152.449097 28.126139,170.312653 21.574156,187.026840 
	C20.191212,190.554733 20.989388,194.931519 20.751226,198.915298 
	C19.497232,219.891266 19.587936,240.720200 26.324926,261.006195 
	C30.722506,274.247864 35.875591,287.329803 39.701199,300.631561 
	C44.842224,318.507111 54.305416,334.070374 62.021477,350.549622 
	C68.106964,363.546417 77.499962,374.552216 86.250526,385.863556 
	C89.973808,390.676453 92.688248,396.222626 98.208061,399.684326 
	C113.246025,409.115173 130.166382,412.563141 147.209442,415.538483 
	C152.286346,416.424774 157.308441,417.123657 162.273026,418.700684 
	C170.666443,421.366852 179.194504,423.112793 188.198776,423.183380 
	C203.382645,423.302307 218.396042,421.259064 233.508148,420.581604 
	C240.431442,420.271271 247.386765,419.694794 254.298447,418.371429 
	C270.484131,415.272400 286.222504,410.451477 302.164856,406.447723 
	C312.602234,403.826477 323.105194,400.956299 332.713898,395.800873 
	C343.724365,389.893402 354.805176,384.244232 367.113800,381.372040 
	C371.136322,380.433411 375.136108,378.978851 378.833984,377.134155 
	C406.315399,363.424957 424.580109,341.045959 436.936584,313.616974 
	C442.052155,302.261353 445.612366,290.205048 450.131989,277.725433 
z"/>
<path fill="#000000" opacity="1.000000" stroke="none" 
	d="
M95.343613,383.700531 
	C86.630707,381.610504 81.850754,375.313385 78.976448,368.219635 
	C68.597054,342.603333 54.164974,318.813232 45.129772,292.621887 
	C41.157173,281.106079 38.830086,269.242065 37.688610,257.082062 
	C36.820297,247.832047 35.572094,238.575806 33.770378,229.465225 
	C31.155947,216.245041 32.276180,202.928772 31.721462,189.652679 
	C31.223970,177.746170 34.091175,166.761551 37.973495,155.596130 
	C43.206085,140.547394 50.254787,125.849480 51.988483,109.879913 
	C53.757381,93.586113 63.852486,83.517029 74.335304,72.443283 
	C87.957390,58.053303 106.585648,54.414371 122.868469,45.783783 
	C139.227249,37.112934 157.488541,35.480522 174.866394,30.564203 
	C187.233490,27.065460 200.122787,26.408495 212.327194,22.420954 
	C214.027328,21.865469 215.929230,21.843077 217.746964,21.744934 
	C238.051788,20.648670 258.447571,21.189579 278.433411,24.141863 
	C297.725220,26.991629 317.113739,30.426325 335.243286,38.862408 
	C350.060883,45.757378 364.500092,53.428417 378.500244,61.629372 
	C390.551758,68.688843 401.978363,77.377777 411.152802,88.419731 
	C414.206116,92.094635 415.878418,96.430161 417.965576,100.572975 
	C425.538177,115.604019 432.384521,130.994843 436.359833,147.371201 
	C438.899689,157.834259 440.292419,168.606659 441.695404,179.306488 
	C443.230347,191.012512 447.389465,202.294418 447.630524,214.152802 
	C448.028748,233.739761 448.992432,253.400528 444.825867,272.757904 
	C443.550323,278.683929 440.084473,283.731537 436.791870,288.737213 
	C428.891327,300.748199 423.904388,314.293396 416.753418,326.668488 
	C411.685974,335.437958 406.148468,344.043121 399.905975,352.004395 
	C386.214142,369.466034 367.570709,377.374603 345.787292,380.431671 
	C330.875183,382.524353 315.605347,382.936920 301.080322,387.591461 
	C298.229645,388.504944 295.132599,389.023895 292.604340,390.502869 
	C282.941162,396.155823 271.960999,397.904663 261.550537,401.274139 
	C249.637283,405.130035 237.179245,403.996399 224.876755,404.126770 
	C209.244858,404.292450 193.638794,405.244263 178.022659,405.902466 
	C166.639374,406.382294 155.121475,407.636169 144.019043,403.068054 
	C139.442978,401.185272 134.426453,400.355194 129.589294,399.128967 
	C122.313705,397.284637 115.167198,395.349518 109.043671,390.541870 
	C105.125130,387.465393 100.453392,385.468628 95.343613,383.700531 
M433.613037,177.799072 
	C432.155426,171.317719 430.255127,164.964523 429.164764,158.366486 
	C425.853638,138.329895 418.540131,119.625191 409.396881,101.573181 
	C404.070892,91.057755 396.437469,82.991806 386.427948,76.565422 
	C371.424927,66.933098 356.071045,58.017391 340.171753,49.981342 
	C329.166718,44.419029 318.134705,38.619583 306.044891,36.168156 
	C289.291595,32.771141 272.496826,29.244762 255.227707,29.127523 
	C241.585464,29.034906 227.861053,27.543053 214.336441,29.617928 
	C193.932571,32.748180 173.785309,37.337955 153.654251,41.925323 
	C134.456909,46.299919 116.540108,54.325665 99.740730,64.004768 
	C84.945221,72.529335 73.316772,85.162270 67.368950,102.034325 
	C64.774788,109.393112 63.190765,117.020317 60.208572,124.306717 
	C54.299454,138.744476 47.638111,152.887100 43.609646,168.101181 
	C38.956593,185.674088 39.018421,203.575226 40.799442,221.180237 
	C42.648006,239.452957 45.427544,257.746307 49.292324,275.791412 
	C52.691559,291.662842 57.796455,306.907654 66.320839,320.800537 
	C74.868820,334.731903 82.990997,348.852386 88.456635,364.335114 
	C90.209641,369.300873 93.359337,373.348907 98.097038,375.305389 
	C107.333878,379.119873 116.381111,383.291229 125.270905,387.829620 
	C133.837875,392.203278 143.915527,391.414215 152.473572,395.831238 
	C155.823441,397.560150 159.447464,397.806671 163.167099,397.740051 
	C184.795258,397.352661 206.426773,397.129425 228.052628,396.647736 
	C235.187866,396.488861 242.328522,395.913513 249.433334,395.197479 
	C260.938995,394.037933 271.655670,389.757294 282.617981,386.441040 
	C290.894836,383.937164 298.743469,379.737549 307.390228,378.830292 
	C319.989532,377.508362 332.346924,374.914093 344.762939,372.652130 
	C364.181274,369.114471 381.049927,361.169312 393.140839,344.591156 
	C408.297180,323.809967 421.252289,301.787750 432.588745,278.729431 
	C437.073944,269.606567 438.664337,260.261871 437.942688,250.212570 
	C437.466614,243.582687 437.820435,236.891006 437.853516,230.227234 
	C437.939484,212.907974 438.296600,195.569733 433.613037,177.799072 
z"/>
<path fill="#000000" opacity="1.000000" stroke="none" 
	d="
M242.098862,259.123352 
	C233.645416,262.224518 226.373306,266.852264 218.717453,270.695709 
	C214.295746,272.915558 210.208206,270.468567 210.168488,264.817902 
	C210.139420,260.685028 210.277786,256.512939 210.457794,252.411545 
	C210.728317,246.248184 210.884140,240.074219 210.654022,233.947815 
	C210.133850,220.099503 213.955338,206.529373 212.729416,192.631134 
	C211.387177,177.414627 212.666565,162.025879 209.832031,146.886215 
	C209.120178,143.084030 211.302551,140.354843 214.238617,138.559006 
	C223.989853,132.594681 234.604691,128.765884 245.840973,126.755836 
	C248.638718,126.255356 251.484329,126.795128 254.185471,127.823830 
	C260.251801,130.134109 266.376221,132.300705 272.384583,134.752335 
	C283.324554,139.216263 287.899811,149.466583 293.107452,158.782516 
	C299.222870,169.722321 300.189301,181.972305 298.985565,194.219742 
	C298.048126,203.757721 293.644257,212.364792 290.043549,221.122971 
	C288.528839,224.807281 286.385315,228.227646 284.680298,231.840042 
	C277.459778,247.138000 263.328400,252.439209 248.604370,256.921509 
	C246.538254,257.550476 244.506775,258.293182 242.098862,259.123352 
M245.567398,250.017853 
	C249.036057,248.839203 252.607193,247.895401 255.953171,246.435547 
	C264.266327,242.808472 271.979492,238.445297 276.924286,230.253510 
	C283.380920,219.557114 288.046082,208.192688 289.655457,195.830658 
	C292.031616,177.578613 289.019897,160.743088 275.652924,146.778915 
	C272.872894,143.874680 270.127594,141.624069 266.253876,140.709061 
	C260.909210,139.446640 255.578415,138.124908 250.246017,136.811005 
	C248.254456,136.320251 246.324387,136.336334 244.360138,137.046783 
	C238.857162,139.037201 233.732559,141.806488 228.556335,144.488113 
	C225.379166,146.134125 224.326492,148.561264 224.163406,152.126907 
	C223.646545,163.426910 223.180542,174.761566 221.866608,185.985870 
	C219.362579,207.376999 218.800980,228.807419 219.248016,250.298050 
	C219.303070,252.944595 219.657394,255.518066 221.205933,258.287628 
	C228.902313,254.821655 236.699600,252.042557 245.567398,250.017853 
z"/>
<path fill="#000000" opacity="1.000000" stroke="none" 
	d="
M372.434235,156.442261 
	C374.243683,153.033020 375.879211,149.945679 377.463867,146.832443 
	C379.494873,142.842255 383.024689,141.150848 386.360077,142.618942 
	C390.168365,144.295166 391.738770,148.505936 389.647369,152.782898 
	C386.633942,158.945511 382.118378,164.165817 378.015869,169.593811 
	C367.079193,184.064148 355.370422,197.916321 343.308411,211.464142 
	C341.753662,213.210464 340.373505,215.027908 339.273285,217.467010 
	C344.177460,221.841843 350.199707,223.992828 355.744354,226.858093 
	C366.691956,232.515381 377.709381,238.024307 388.178406,244.557129 
	C391.627533,246.709427 394.641479,249.207108 396.449402,252.969574 
	C397.473236,255.100235 397.287659,256.933472 395.198242,258.132263 
	C393.307373,259.217133 391.318390,258.626587 390.475952,256.777740 
	C386.954803,249.050491 379.364685,246.545258 372.784973,242.891830 
	C360.726990,236.196518 348.241119,230.371689 334.545105,225.671143 
	C334.900970,232.331528 334.956696,238.579865 335.643250,244.758118 
	C336.327515,250.915726 336.046417,257.072693 336.352142,263.223328 
	C336.487244,265.941193 335.811218,268.564789 332.515961,268.513611 
	C329.285736,268.463470 328.579498,265.912506 328.730957,263.148682 
	C330.314728,234.248215 325.001678,205.729630 323.976227,176.974640 
	C323.554901,165.160370 323.109894,153.345779 322.845093,141.527542 
	C322.710083,135.501862 325.250427,132.425430 329.720886,132.571121 
	C334.039398,132.711853 336.505737,135.759430 336.180084,141.395248 
	C335.527435,152.691772 334.539948,163.968506 333.800385,175.260605 
	C333.202423,184.390411 332.736328,193.529266 332.277008,202.667404 
	C332.159393,205.008209 332.618805,207.299362 333.765320,210.372879 
	C351.294891,195.467697 361.027130,175.567627 372.434235,156.442261 
z"/>
<path fill="#000000" opacity="1.000000" stroke="none" 
	d="
M142.024658,263.031403 
	C139.866104,260.359894 139.798798,257.243103 139.987427,254.016602 
	C141.311203,231.374069 139.968964,208.808105 138.004807,186.259048 
	C137.182312,176.816376 136.327179,167.373306 135.742249,157.914642 
	C135.483627,153.732819 134.204239,151.825439 129.622147,152.805267 
	C124.911301,153.812622 120.080917,154.273407 115.294838,154.913559 
	C108.257202,155.854843 104.362305,153.889908 103.959595,149.263794 
	C103.562691,144.704361 107.413994,141.883575 114.226822,141.739105 
	C128.541397,141.435547 142.855194,141.084869 157.170914,140.851334 
	C161.855026,140.774902 166.425613,140.450073 170.948395,138.972397 
	C173.422867,138.163940 176.616776,137.679810 177.365784,141.464859 
	C178.056015,144.952911 175.219025,145.512405 172.704849,145.977600 
	C166.323013,147.158417 159.955734,148.479889 153.527283,149.322983 
	C149.843597,149.806091 148.361160,151.271378 148.302414,155.047028 
	C148.014908,173.525925 147.389038,191.999969 147.153229,210.479156 
	C146.960190,225.605453 146.688370,240.745911 148.143845,255.843948 
	C148.526718,259.815613 147.570953,262.887268 142.357605,262.966125 
	C141.983627,263.003204 142.024658,263.031403 142.024658,263.031403 
z"/>
<path fill="#000000" opacity="1.000000" stroke="none" 
	d="
M141.960938,262.992981 
	C149.799088,264.289490 157.695724,265.134399 165.682434,264.855225 
	C167.010498,264.808807 168.343613,264.767212 169.669495,264.828827 
	C172.099976,264.941772 173.972473,265.951508 174.020370,268.626953 
	C174.070816,271.445068 172.007278,272.114471 169.649139,272.310089 
	C163.815247,272.794067 158.068253,271.263214 152.277603,271.454041 
	C135.508392,272.006805 118.746506,272.782288 101.981857,273.472870 
	C101.151886,273.507019 100.321625,273.621002 99.493668,273.602234 
	C95.235664,273.505707 92.095337,270.805237 92.004852,267.198578 
	C91.915405,263.632965 95.004951,260.613586 99.318039,260.749725 
	C108.276115,261.032471 117.224396,261.632202 126.175644,262.121124 
	C131.148636,262.392731 136.119507,262.703491 141.557983,263.014008 
	C142.024658,263.031403 141.983627,263.003204 141.960938,262.992981 
z"/>
</svg>